<?xml version="1.0" encoding="iso-8859-1"?>
<!-- Generator: Adobe Illustrator 19.0.0, SVG Export Plug-In . SVG Version: 6.00 Build 0)  -->
<svg version="1.1" id="Capa_1" xmlns="http://www.w3.org/2000/svg" xmlns:xlink="http://www.w3.org/1999/xlink" x="0px" y="0px"
	 viewBox="0 0 464.156 464.156" style="enable-background:new 0 0 464.156 464.156;" xml:space="preserve">
<rect x="365.549" y="314.55" transform="matrix(-0.7071 0.7071 -0.7071 -0.7071 937.0812 388.0286)" style="fill:#A67C52;" width="45.256" height="147.081"/>
<rect x="333.53" y="327.79" transform="matrix(-0.7071 0.7071 -0.7071 -0.7071 859.7802 356.0081)" style="fill:#754C24;" width="45.256" height="56.56"/>
<circle style="fill:#CCCCCC;" cx="208.158" cy="208.079" r="200"/>
<circle style="fill:#29ABE2;" cx="208.158" cy="208.079" r="168"/>
<rect x="104.158" y="144.079" style="fill:#F7931E;" width="208" height="48"/>
<rect x="120.158" y="192.079" style="fill:#FBB03B;" width="176" height="96"/>
<rect x="184.158" y="144.079" style="fill:#F15A24;" width="48" height="96"/>
<path d="M208.158,0.079C93.282-0.008,0.087,93.046,0,207.921c-0.087,114.875,92.967,208.071,207.842,208.158
	c44.679,0.034,88.181-14.32,124.067-40.936l86.592,86.592c3.124,3.123,8.188,3.123,11.312,0l32-32c3.123-3.124,3.123-8.188,0-11.312
	l-86.592-86.592c68.413-92.2,49.129-222.402-43.07-290.815C296.29,14.407,252.813,0.053,208.158,0.079z M16.158,208.079
	c0-106.039,85.961-192,192-192s192,85.961,192,192s-85.961,192-192,192C102.17,399.955,16.281,314.066,16.158,208.079z
	 M347.47,368.079l20.688-20.688l12.688,12.688l-20.688,20.688L347.47,368.079z M424.158,444.767l-52.688-52.688l20.688-20.688
	l52.688,52.688L424.158,444.767z"/>
<path d="M208.158,32.079c-97.202,0-176,78.798-176,176s78.798,176,176,176s176-78.798,176-176
	C384.047,110.922,305.314,32.189,208.158,32.079z M208.158,368.079c-88.366,0-160-71.634-160-160s71.634-160,160-160
	s160,71.634,160,160C368.056,296.402,296.481,367.977,208.158,368.079z"/>
<path d="M312.158,136.079h-208c-4.418,0-8,3.582-8,8v48c0,4.418,3.582,8,8,8h8v88c0,4.418,3.582,8,8,8h176c4.418,0,8-3.582,8-8v-88
	h8c4.418,0,8-3.582,8-8v-48C320.158,139.661,316.576,136.079,312.158,136.079z M224.158,152.079v32h-32v-32H224.158z
	 M192.158,200.079h32v32h-32V200.079z M112.158,152.079h64v32h-64V152.079z M288.158,280.079h-160v-80h48v40c0,4.418,3.582,8,8,8h48
	c4.418,0,8-3.582,8-8v-40h48V280.079z M304.158,184.079h-64v-32h64V184.079z"/>
<g>
</g>
<g>
</g>
<g>
</g>
<g>
</g>
<g>
</g>
<g>
</g>
<g>
</g>
<g>
</g>
<g>
</g>
<g>
</g>
<g>
</g>
<g>
</g>
<g>
</g>
<g>
</g>
<g>
</g>
</svg>
